<mxfile host="Electron" modified="2024-02-16T06:25:59.138Z" agent="Mozilla/5.0 (Windows NT 10.0; Win64; x64) AppleWebKit/537.36 (KHTML, like Gecko) draw.io/21.2.8 Chrome/112.0.5615.165 Electron/24.2.0 Safari/537.36" etag="4KdpupUhkSZs1k6fwiEY" version="21.2.8" type="device">
  <diagram name="Page-1" id="2XWkQP5S-hDbL94sL5Vg">
    <mxGraphModel dx="2058" dy="1180" grid="1" gridSize="10" guides="1" tooltips="1" connect="1" arrows="1" fold="1" page="1" pageScale="1" pageWidth="3300" pageHeight="4681" background="#999999" math="0" shadow="0">
      <root>
        <mxCell id="0" />
        <mxCell id="1" parent="0" />
        <mxCell id="APLwThIm-aDqV8bCMrbt-1" value="PathView" style="rounded=0;whiteSpace=wrap;html=1;fontSize=25;fillColor=#dae8fc;strokeColor=#6c8ebf;" parent="1" vertex="1">
          <mxGeometry x="1390" y="140" width="460" height="60" as="geometry" />
        </mxCell>
        <mxCell id="Td42tOF8UxnPRq14yHAB-1" value="" style="shape=image;verticalLabelPosition=bottom;labelBackgroundColor=default;verticalAlign=top;aspect=fixed;imageAspect=0;image=data:image/png,iVBORw0KGgoAAAANSUhEUgAAAbkAAAIzCAYAAACdl2cLAAAAAXNSR0IArs4c6QAAAARnQU1BAACxjwv8YQUAAAAJcEhZcwAADsMAAA7DAcdvqGQAAFdTSURBVHhe7d0HgBxZYSb+r6rjhJ4cNdJoknLWatkELJhgwMCZoIW1sQ8wGDgb/iaaYMBgDLb3bM4BA4YDzubMwq4xJtiHway0SKvVKsdRmpxz6OnpXPV/r7p6kmak1qinp7rm+0k1XVXdlWaq39fvVWhlx85dOpJ0HbMDkhieP2KR16y2NK5NirOy1vZniwz/1tbKH0kxH21vzWzobaX9N5HSDK3z+zfWRJm/PonB2XFzX5MIuUWCS1+YbimFWwolS5oLnzTPLo3SuGZr5ndGtPLmF49pkNYZpn3tMirltU/phbd+kfFsCmGn7Nixc16c3TrczD7xsOBVqyiFNUlxZa2zTcuVxi2w8C8j+/9Oa8P84idD0rrQVdmCtEl57VN6oTV+F8ZazP4wJAbnr9/csFO2i5Az+kTRcXO+JUfMvOQ2BcytnzWk8BIpxZelWfpWbnXW38oy/BvhH2C++WVAFsruDUjr2qc8s8z/zlZ+1RITGj9nfxiUJYLODLkFAbew9pb4b1o4vFJSXEIKL1v5dV1M+tY/VauznemU/VtAd2p+wZSNUtqClDfTmr+PBflxCyu//vNqafN/mL2Jfkn2ipDbMa+FcmHtbXZw4TG5+UOGRUYtlMJL7szclV9C2peZVqvxS0sfa/9uiW42WwSmSUozTPtS0ya9q5/aC5e/zNmRRp8ZaHODT5r33LbtOxLl1LwQE32J/0b//BxZODzXkk/MSuElUoovS1F6F5redbOqVdjKtbHIVTH79reYtK+YZbc0bVLewvS/8LbSu8jFX2SMXVBbk2PNh+SPmdclQm5BwM2EmOhxulzIy8uF2+WG2+OGw+G4q5Jh7pKyVsY3Ib0LtMFfgGjZEkVgOqV/jreU4cWtBDOSlkdMGo/HEQ6HEYlEMT09jVg0KsYn5pkMveRPZdu27XMqZvMDzufzobCoECPjfgRDEYTEDKOxuPkCohSknKhyd1zsxYmdlSi9uF9lM5fTAa/HhRzRlZX4MD4+Af/kpPizmuFmPJj9W0XIGX1zAk4elysrKxNjVPQNjyESjSWeILpTKYVcssBZ+GIWRLRSuG/ZhdvlRHV5EZwOHYODQ+ZY8Rc2g041hmYCTj7qKBA1OBlwHX1DDDhavpQCTpIvTPnFREQzZEZ19A4jFleM1sfEyZOzmabKvtmAk9VAp9FEKWtwRKuHn7SJKHV9Q+MoKiw0MmxupqlGvxw0e/Ly84xjcKzB0V1J7ljLwoAjojsjM2t4zI/cvFxjOJlpaiLtzCHxKM+ilCeZEKVM7j4Lu2VjwFE6yP1osY7sLBiOGhmWTDiZbepMgSQGZK+8TECeRUmUkrsKNKKl3E1A3eq1dzIfyjYhEXIejydRLJlBp2zeslX0zR6Xq9tYh0stXcaTSynIzzNO4bxT8vKDyamAOURZb0UCjoUQ3WofuN1Ox/1nrdvRVIP2jnbRpxhnWBohl2yulI91dRtxuaXbGF7KF//iC2hsajKHFpe8WWZP/3AyUBGYHMEHPvJRqOqdByRZzF0FXLIgWjgTFlCUyj6w1M7H/YeA7U3r0N7eMecSgjkBl6qiwgLs2Lrplt32LU1G97KH78fLX5ToystK72g5ZCHyzza3SwsWSrQci+039t+X/uTTH0Pn9XPoab24aCefk6+xmmd+8WM8eN+95tDN5HNH/+tH5lC6JFsnxZ6xefMWoz8ZPqnU5P7x61/G+vWN+MEvr0NR9UTnkJ2GV+1pQlVlIabMZsm8vDz8y9E2o7/eN423vO0dcDicxvBCF089g+KiInMI+NRnP4///X++bQ7d3je/+iXj8W3v+j3jMUmOLystwWve+Kg5JuFHT34HwyOj6Ontxdt++zdR07jdfIbmSVuoJS0skJILYOgR94GlyBB72avegL6BAXPMfCXFxXj65z9C7aY95hhrkCH2d//rz/D7f/BRPHP8hDk24VbPLVeiJpdsrpy5GPzOyN1QURxom5hCu9+PjulJdIUn0B0dRzSqicAUnfkvyeFO7XZgr3/zbxlhIwPus5/6uDl2cZ/79CeMoLqdr3z9G9i/7+Y/vBwnA/GPPvOnDLiMWawQM/aoRC8RLUreN1gG3OSkf9GuvaMzcW9hi5HhJUNMhtncGt1KBNxilhVycS0RXuWlHijuGCZikxgKjWAgmLilirLgk7+3OITcsmlzKDWyBtfW3oHf+e9vMccs3/ETp26alwxIOY5uY1m1OIYWEc1aGHSZCjhpWSGXLPeaB7rRNt6H8dgYgvAjokwZ43WzfEveaTqvaAq5+Ynn7tTFy81Gba2n5fJMJ8mQkk2MsjYmx80NMNnsKcfJx6TrN1rx66/5NXMI2LNrJw49fcTol9Me+a//MPqluctL1hTlvO679x6jX75+7rzla+T6ZLVlhdntLAw6Bh/RWjU36DIVcNKymyuloAg1V04ULm8UTk8ELtEZRIE596sUtpZvQFNRgzmUGhkaRUWFRi1MHkuTzYmy+8+fP2UcY5NNjN/8x/+L02fOGeOTx+5e/tIX43fe/V5jnLwzdTJ8ZJNlff1Go1+S4SjnsZCctzxOl1yeJEPtxMkzeM2rXmEMJ8MyGXpyvovNK2skAy4jQUe0lMztK4uduLFYR9nPvK2XWbrJk0/uoKAzwk10Lo/s5oSc2FfnzqapuNHoUvH9x//JqEHJWtrOex40xskwSdasZIjdigxBGYySrL3VrFtn9MtxMvRkYMlOhuNiNjU1GMtILk+G4fMffABHnjmGF73w+cZriouL8IMf/gTvfsfbjXm1tdmo2fMO/v6LW6ygkuMYdmQdNQ07U+oofeY2Uc5tukw7WYYZ5Zj4ITJtWTW5pETAJcLNLR/diZBLnKmZLC11RKJRBIMhc/jWkieeJGtRMuBk8CXHyRBbLtk8KQNL1sTOXVj6U5o86SW5PNnJk1NkTVHWLGWojY2N40f//v+MQJTzu9W8LC/5Z5prsXFEt5T8IDO3I0pYeAxu4TG6lbS8kBP7bzgcxH1ljThQvAn7CzZjb9427M7ZYYxPvCSxk8u80zQNcdEt19j4uNkH3Htgn9kH48QRWatKlQwmOf1STZWSrP3JWuRiZI1NPveDH/1kprYog07O1/LuNLjk6+847FiwrU1L/d25P6ST/DZseZnAUqqqKozXWM1SJ5lkKuiWFXIyr7Zt2YB3vfileNfDL8c7X/BKvOMFr8XvPPTfsHXLeuTm5qGiohwlpSWiducyQk5Vl7fDJ5sZk82Hc5sGZe2qvm6jMV7WsG4nOa+lmiql5DV2yeXJLnnsTdbY5PKSx/9kIErJwLOsZFjdcWgRZQoD8Xb+z7cfN66DW+zYoeye++XPjNdYibxO7bHPf+qmgEtKBt3//MKnzTHpp2zavEUUfebV4eJHXV0dLrfe+mLwP3jve7Bvz9IXHKqqanTyU8XcO5ycP38Bj33xr6EucTE4rZCF4Ta3PElb8LGQWptS/bvfbkfj/mNXMugyeaer7Y3mxeBil5ItissKObnCuiYCzBxOldyNFdVhbDRlyFJ/pOSfYFn7Hv9+lMR9gaxlYcgt7xICeasUURuTt+e6k05Ow4BbAcYHlERvypYzjYF/P0rivkDWd1dnV5IFzA2qhcG1rBBLWqwAY6FGRNmFIZfNlgqxhWF3R2SQJcMs2T93HBFR9mDIZau7qqVJCwMs2REthvsKZSeGXDZI1szmdjdJtdBhAUV3ivsLZS+GnNUtGmiLSfmFRERrBkPOyphbRES3kGyZWrq1QYTc7DVyLFMt5K7/GIv90dnsRHeK+wxZ0WLBNjtsFJ/ih3xkTc4K5F9iYXdXkn9sFlBEtJbcXOYpmzZvNr80IFGTq6+rw3e+88/Gk0RERNnk0Ud/A23t7Ym4kzcuMcYSERHZEEOOiIhsiyFHRES2xZAjIiLbYsgREZFtMeSIiMi2GHJERGRbDDkiIrIthhwREdmWmriFVPK+lcatT4w+IiKibGOk2cy9mHXW5IiIyL4YckREZFsMOSIisi2GHBER2RZDjoiIbIshR0REtsWQIyIi22LIERGRbTHkiIjIthhyRERkWww5IiKyLdW4v5d5u0pd3vIr0UtERJSVkjkmM401OSIisi2GHBER2RZDjoiIbIshR0REtsWQIyIi22LIERGRbTHkiIjIthhyRERkWww5IiKyLYYcERHZFkOOiIhsiyFHRES2pco7WBo3s5R3spR9yTtbEtEdUcbHofb2Qu3uvnU3MABletqciojSKhFoZqaJ92VT06ZErxF2Ourr6vH4498xniSi21NHRqD29BjhlXxj3Y6ekwOtqgpabS10j8ccS0R3681vfhRt7W1QxD8oCpsrie6GDDbHlStQ+/tTDjhJCQbhaGuD4/p1KOGwOZaI0o0hR7RMRlB1dkIJBMwxd85o3hTzIKKVwZAjWiZ1aAjK2Jg5tHyyFshjdEQrgyFHtEzyRJN0kDVCxe83h4gonRhyRMukhEJmXxpEo2YPEaUTQ45ouTTN7CEiq2LIERGRbTHkiIjIthhyRERkWww5IiKyrZmQS9zay+glIiLKXiLLknHGmhwREdkWQ45omXSXy+xLA5VvRaKVwHcW0TLpPp/Zd5cUBXpurjlAROnEkCNaJr2sLC21Oa2yEnpRkTlEROnEkCNaJq2kBNqGDebQ8uh5edBqaswhIko3hhzRXYjX1yPe0LCsGp1eXIx4UxO00lJzDBGlG0OO6G44HEZQxffsQbyuzggsvaBg6a6oyPhG8PjWrYjt3Gk0VRLRylGamjYZ32esy5+iqxefTB9//DuJZ4mIiLLIm9/8KNra2owTuhTRsSZHRES2xZAjyqDocDMudqXxe+iI6JYYckRpo0PTZJf4njktFkFUDCeI8bEo4vwKOqKMUhNvQeOonNFHRMsU7cHl42dw8WofpjrO4Oz1Dlw5dRG9kThGr5zEmevtuNEzab6YiFbKTK7pOmtyROmkFdRi57Ya9A/F4IwGoTvCGB/pR19kHXZv24QtGwrMVxJRJjDkiNJIUVUo4lF1FqB25y7s3LkDDaU5UGNRxMT4eDgKTb6AiDKCIUeULpoDTnciwWrrPeg4cRwnm/swjRI0bgjh4rMn0OJ3wcV3HVHGKI1Nm2TDpXmdHHidHBERZS15nVxrW5u8TA6K+MfPlEREZFusydlQVAPCoosaf1JF/nXNZ5Ygnpavks1oXlVhcxpltfHQOCajkwhEAojp8kjoramKKvZ5F3xuH0q8JfA4POYzlI0W1uQYcjaiiT+oXyRbIA7jJIflcIouV/zwOQAHT5CgLDIZmUS3vxv9gX7EtOW9AwrcBajOr0atr9a4JRRlHzZX2lRMfEAZiwITdxFwkpx2UvwYFfOSNUGibDASHMGV0StGyC034CQZlFdHr+La2LW7mg9ZB0POJvxxRdTg0pdKQS0Rdsw5srpANIC2iTajmTJdOiY70OnvNIcomzHkbEA2T/plVS7N5HwD/DBLFtc71YvR0Kg5lD6yVjgWGjOHKFsx5GwgtIJXF8saHZFVReIRDAWHzKH0CsVCGAmNmEOUrRhyWU7e/ze0gnf9lWdpprEVlCit/BE/piJT5lD6pbMJlFaHEXLyxEp58EWean7b083JUnRFQRwrV5OT8cmQI6uKaBGzb2VMx6bNPsoWiQwzAs3oY00uyxmXfqy4TCyD6M5p+sq2p/MMy+zHkCMiIttiyBERkW0x5IiIyLYYckREZFsMOSIisi2GHBER2RZDjoiIbIshR0REtsWQoxTwe7XImuQXnq4kh+Iw+yhbMeSynCryZyXfhqoIOH55KlmV2+E2+1ZGnivP7KNspSZuXGneuIl3b8o68lOKdwVTzq3oDDmyLJ/bt6JBVOgpNPsom8hYS8YZa3I24F3Bv2IuW2vIwtyqG+U55eZQenkcHpTmlJpDlK0YcjaQJ4IofwXCSM6XIUdWV51fjWJvsTmUPut961HiLTGHKFsx5GzCJwMpjX/NHDEvOU95zI/IymSTZX1hPQrcBeaYu7fBtwG1BbXmEGUzhpxNuMRfstgFFDh0OO7i4KqsuMlwk/Nyc++gLFGWU4atpVtR46u5qzMu81352FyyGZuLN4v3lHgTUNZTGhubEt+Zahyp01HfUI/vPv544lnKShEt8Y3eUfEnld8cfjvySwadomCQQSlPNGG4UTYbDY1iIjxhfOFpNB41xy5NhqIMNFkjlMfgcpw55jOUjd705jejtbUNiqIkOoYcERHZxcKQ42d2IiKyLYacHcSC8E9FEDcHF6VFEPAHjSbMuaLT4/DLtk0iIhtiyNlBfBjXmvsQMQcXpfvRfrkTAXMwaaL1KnqC5gARkc0w5LKVHkckHEIkPr9qpmsxxGKimzNej4vhZGVNPB8Ji1rfghqdMZ15lsrcfjGEWCSEcGzBBERWYu7XsXjc3Hc1aGIn12IRRIx9V0dc7sfzmjIW7Nu6hnhcgy6mCUVi4lmyA0dJSckfm/2G4uJiHHzjG80hsqTYGK6dPIuO8QkMDMZQUgYMDegor9TQ+twFjOWo6L/YC1dNOXKUKbSdvIxQeRHCg/0Y6h/A0FA3rneEULSuFNpwD6YLapA3dA7NUyWoKnAi3HMeF8YLsa5IQ9/553CpbwIj7a1ivlWokFeIE1mIHurD+WfPo3diHH09HegecWFDWRAXxH7f3deHUSUPzt5zuNA9jpGuFgw6K1Hli6P/wnO4aO7bo16xb7v6cObkVfQOjmK4twWd4WLUlHh4e/Is8+STT2JsbJwnnmS1mB8TWjEatu3GvXs2QJ7wrMCPtjPXoG3ejy0V1VhfOIm+0Sji4z0YyVmPCrcoDKIe1Ow9gH33PA+7ikbRLZ6/lfhoKzr1WuzY3IAt28ox1TVsPkNkHVM93dAa7sW9+/bjwKZSWYlLiOWi7p77sLtoBK3T67B9awM2b69BtLsfgbE2dMTNfXt7Baa7h4xJNJRi6737sH9fPZwjI2BLfvZTE1XyRHXe6Gcd3fq8G7Bnixc9p47gmcuDxrE4PTqJ8bioiRXKu7I7RC2tCNN9AxjonUR+TQmMy1qdbnicskeFQ1TI4gvbLBeIRyLQRaD2dvegezCOwqKVveM70XKEQ3F4cxIXbitOx+wNxV1eY3/XomI/1sR+3CX2474QfMXe+fv2QAwF5r6tiPdI4i3iFI9mmUjZZeaPJnp0nTW5bKRNjWLCXYOd9+1GyeQAJuRpla5qbK0P4/KpG8awWlSDslgfuoPFqCk23rZAaBQDYxHEIqPoHVZRXDh7RwenU0VoMoCoHsbYqN84U9PlK4AaVlDZuAmbGtejrCg/8WIiC8n1OTExMI6IHsV43zCmFzQwOvIK4IzoKK3fhM1NtSgr8cEn923x6bBiZt/2ma8mu2HIZSMlguFrZ3HiVAecmzajTHzqzM3zIKdyJ/atj6L1aq94o+ejslTU2MqqUWC85xV4i0qhDlzAqbNdcG3Zg9ocBUpODjyaBnfVJtSiDadPXsNUThnyRS4qeXXYvcmBjrMncfpiN0JOMyyJLCR3w040qB04e+ICht2FyFXEDq+p8OZ6Ei/wrMeubbnou3AKp863I6C6oORuxJ7NTnSZ+3ZQ7Nu65kBevvnBT3cgJ5ctF3agNDQ2yTqdcccTedOThvp6fPe7vONJVtM1aPo02k9dh2f3PtSY73UiO4pNjSHgKoDPrWGi5Sxa3dtxTy2/7HStetOb3ozWNnnHE/nRniee2FN0ABePXUZ44zYGHNmeHptE5/nn8Oyx0+hAPXZuYMDRLIacHbmrsfuh52FbhdccQWRfrqKN2HXvA3jwwfuwt6kMnvmH5GiNY8gREZFtMeSIiMi2GHJERGRbDDkiIrIthhwREdkWQ46IiGwrEXK8QRsREdkQa3JERGRbDDkiIrIthhwREdkWQ46IiGyLIUdERLbFkCMiIttiyBERkW0x5IiIyLYYckREZFsMOSIisi2GHBER2ZYIOT1x60r5Qzd+yCEiIqIsJDJMZlniP2tyRERkXww5IiKyLYYcERHZFkOOiIhsiyFHRES2xZAjIiLbYsgREZFtMeSIiMi2GHJERGRbDDkiIrIthhwREdkWQ46IiGxLTdyP2bxJMxERkQ0kM401OSIisi2GHBER2RZDjoiIbIshR0REtsWQIyIi22LIERGRbTHkiIjIthhyRERkWww5IiKyLYYcERHZFkOOiIhsSzVvXWn8SPwjIiLKTjLDEjmW6GNNjoiIbIshR0REtsWQIyIi22LIERGRbTHkiIjIthhyRERkWww5IiKyLYYcERHZFkOOiIhsiyFHRES2xZAjIiLbMkLOvHVlQvKRiIgo2yQDTf4XHWtyRERkWww5IiKyLYYcERHZFkOOiIhsiyFHRES2xZAjIiLbYsgREZFtMeSIiMi2GHJERGRbDDkiIrIthhwREdkWQ46IiGxLhFzijszJe1oSERFlu2ScsSZHRES2xZAjIiLbYsgREZFtMeSIiMi2GHJERGRbDDkiIrIthhwREdkWQ46IiGyLIUdERLbFkCMiIttiyBERkW2pc+9XOeculkRERFlJnxNjrMkREZFtMeSIiMi2lPr6BqNmp4ufsmtsqMf3vve9xLOrSkdYm0BMm0ZMD0HTY+b421PEP1V1wQkvnGoe3KrPfIaIaG0LBhWMjiqYmlIQiSiIx80nUuB0Am63Dp9PR0mJDo/Heoe3HnnkTWhpbYWiiCSQnRVDLhQfRjA+gnB83ByzfCLu4HWWIMdRJsKu0BxLRLS2TE8r6O1V0denGkF3t/LzdVRXa6ip0Yzgs4qFIWep5kpNj8Mf7cREtC0tASfp0BCMDWMi0obpWL85loho7RgZUdHc7EBrqyMtASfJmuD16w5jvhMT6ZnnSrBUyE3FuhGI9YkapWaOSZ+4Hhbz78F0fMAcQ0Rkf2NjClpaHEbQrYSBAdWYvww9K7JMyE3HBoxuJcnjeoFoPyLxSXMMEZF9yeNtnZ0OjI+vbAAND6vo6nKYQ9ZiiZDT9ChC2ojoW/l23bgeMpdFRGRv8vibrGllQk+PisFBSzUOGiyxRvL4WyTuN4dWXjA2apy1SURkZ7KGlSmaljj2ZzWWWKOoFjD7MkNHDJEML5OIKJNCIXmpQGaLeHlpgnG6voVYIuRieuZrVbLZkojIrkKiiIulfnlxWgQCCsJha52Akgi5xJVyRu9q0HEHVyOmyWosk4goU2Kx1QmbO7m4fGUks0w8imyzRE1On1mpTFq9UCciosywRMgRERGtBIYcERHZFkOOiIhsiyFHRES2xZAjIiLbYsgREZFtMeSIiMi2GHJERGRbDDkiIrIta4Qcbz5CREQrwBIhpypOsy9zFFjzC/6IiNLB4Vid2oPDYkWrOvNrMHpW55fiVHPNvsxxKF6zj4jIfryiiMt04OTm6nC7V7dpLrF08dNcDUvU5FxqntmXGYriEMvMfLASEWVKTo6O4mLNHMqM4mIdqsXO9LDE6ngcRSJ08s2hled1FGd0eUREq6GsLLO1qtLSzIZqKqxxTA4u5DjLzKGV5VDcyHFkZllERKupqiqO8vLMBM+6dZpYHkNuSbmOCuQ6K82hlaEoqlhGFdxqoTmGiMi+3G6gtlaDz7eyNTrZLFpba80vorZQ66mCfGeNCLuVCTpVcRnzz3NWm2OIiOxPNiE2NsZRVLQyQZecf0FBZptGU2WpQ4QyiArcdShw1cHt8Jlj757HUWzMM8+5zhxDRLR2VFRo2Lo1ZtS2XK70hJHXq6O+Po5t2+IoKbFmwElKXX2DDl3+F53419jQgO9973vm06snrkcR1SZFF0BMC4o1E1VhxXzydnTFuPbOqeQYYelSC8SkqU5MRGRfk5MKxsZUTE0pCIUATUu9bJTX3slLE2TzZ0mJhrw864XbwUceQWtrq1HmK4rorBpyREREd2phyFmquZKIiCidGHJERGRbqxRyUYx1XUfnaASIT6LnRjuGQuZTRES0AsIYab+O7ombT/WPjHbieteYKJntR4ScPBJnEj2ZOYyoIzwygImYPOAZw2T/MEI8L4SIaAXpmB4axNQiJ5oosXEMjIYzVP5ngLkh8iFzNTn9zn59d/jyGalOttT8l17unA8DRERZSp5keHflmZg2iwpDR1Fx8R+b/YbikmI8cvCgOZQibRzXjp3GaEENSr3iU4I+hbbnTmEoXwyrI7h6+hQuXm9De68f7tIK+Fwapvp7MO1bj8rcCIa7x+CuWYdCZxxT3Zdw8vRltHZ0oGMgiJyyMjj7z+C5bieqy/OgRvpw9shVRKvk68PoOX0CPZ51KAq24PSJ87je1ol+/yT6WkaRU1MOresUznVPYOjaJXRES7DOM4yLp87gSms7OgfDyC8vQ65DbEKgGxdOmuOHIvCVlyLHERDbcRo9U8O4fvEqWtr6ECqoRLmcgIgoq8Qw2duHafGv9dwFXGvtwIhWgIqSHCAwIMq5PNRUuTF0/jjalSpU5IlyLjaIC89ch15VhXyHhkDPRVE+N6O1vQODUR/KS3Mt96VlTzzxBMbGxowzK8WPNNXk1EJUVzsxMjgJeecy3d+Hfr0S6wqj6Ll0BYGqe/DCFz2M+2qjaLnaj0hiqpvEx27gbLuKTQ88jBe96AW4p3IKVy71AKVlcI0Owx8HImMjiLo1sRFiLtEJjIQKUJ4ziqsXh1C46/l4WEy3uyiKKbNxWdHjmParWP+8F+LARh1t59ugNj2AFz78AuwpnRB/6FHEtUm0nGuHc/MDiemLRWi3jxnbgngAfqUO94n1f3BrDgZb+hA05kxElG3CGAuVYP+LfgW/8oIdyO0VFYrxBfeb1LX5tTxzQJtsxfk2BzY/KMrnh/ehdLQZLWPWvJXXXGlqrlTgE0nvGOrHhKZhon9U1MyqkR8bx/CUAn3kGs6fPYerQ1HoQT+CS1R1p8cm4KregDKPXC0H8qurkBcYg99VhnLXOEYCEUwMh+CrzEFwdBIR/wim88vgC41gzF2NmmKXWBMVuRWitjjn44WzsBwlbhWOyBiGoy5Eey7j3NkLaBuPI+oPIBIcwUjMhUh3Ynz7REzMO2AchNXhRVlVIZxizp7CQnijYUSyqKpORDTLhbJ1ZfDISo67GJWlgN+/VLVjvuCYqBC4Iui+fA5nz7diQowLJGsTFpa+Y3I5oubmHUX/6Cj6RjxYJ4LI+Aige1Fe14C6ujrU1W/Bnl0bsPQ3uenQ4nM+RcjJjUv6clBa7sT4UB8GgwWoWl+J3MAIBkankFNWBKdsIJZXtpuTQQRtfGYmChxOx+xzSj6qGsz1adyGPdsq4RZL0RUfqmfGb8eerRVidzAmkLM2zfQQEWUh4xJps19HPKZDddwcAzPH3ETP3HqeklchyvF6o5xs2LoTW8oTpaSVpS/k4EF5TT4m21ox6atBmVuMchWhJHcKA2NAnqgFFeSqCIU1OJfIirySYmh9HegPxMTvNorxnj6EiytQICbIKy1CfLAXQV85fO4ilLon0TPqQEmpB478IviCfegajYjpIhjt6kNgJuTm8BajWB3GgN8Jn1gfX46GkKiWOXJKUKIMYSDgSoz3ivHhTJ6VQ0SUCWEM9w4hrOmITvagczwH5SWysE5ywpvjwNToJKIi3qYH+zEeSzyTU1gEfWQYQXceCgt98ManEdatf35CWstxd2kNfNNhFKwrMWtBXqzfuQ2+4bM48tRTOPzcNYzrsuFPcLrgMOtsiqxpiV61qAn7NrvRfeqXeOrQM2iersbubRWipiWe85WhWEyYX+YT07lRXOaC5ipHmUc86a7G9p0lmLx4FIcOn0SPq8RorpTL0VUnxOwT1EI07mmA2vkcnn7qEH55qhPTivgVqEVoEuPRftwYf+RMJ4JqIolVsZ7qTGCqolbI6COiLOXMR7FzEKeePoSjZ4dQsGMX1ntlnc4Bl1H7UFG4sRHFkxdx5NBRXJr0okiEnqQWNWKvUUzK8vkITneF4bB+xsl7V9abZ5TK00J1NDQ24Ill3rtSm7yO45cU7Ly/Cb5ERqyK6PAlPNvmw7331oqYJSKitcK4d2VLa5rPrkQAfdebce7CAPIbazMfcPIShuPHcObyFVy5dArHL4yjrLGaAUdEtMalKeTc8JWUonbvfdhZMbd9N0Nkc+O+ndhYVoTC8nrse/6D2FZi/QOiRES0stIUci7kl1agNE+ewr86VLcPJRVVqK4oQZ5rFdtKiYjIMngWBRER2ZZqnuCYfCAiIsp6iUzTWZMjIiL7YsgREZFtMeSIiMi2GHJERGRbDDkiIrIthhwREdkWQ46IiGyLIUdERLbFkCMiIttiyBERkW0x5IiIyLbMkDO+NZX3ryQioqw3N8tYkyMiIttiyBERkW0x5IiIyLYYckREZFsMOSIisi2GHBER2RZDjoiIbIshR0REtsWQIyIi22LIERGRbTHkiIjIthaEnD7/pl9ERERZJ3E/Zok1OSIisi2GHBER2RZDjoiIbIshR0REtsWQIyIi22LIERGRbTHkiIjIthhyRERkWww5IiKyLYYcERHZFkOOiIhsiyFHRES2pRq3sORNmYmIyA6SeWbeo5k1OSIisi2GHBER2RZDjoiIbIshR0REtsWQIyIi22LIERGRbTHkiIjIthhyRERkWww5IiKyLYYcERHZFkOOiIhsywi5mftXJu/5ZQVRQJlWoEzeZRdUAM2cJxERzaFBUYKim7zLblrMSxTaVmFmmXxQNtbV64IY0sV/HY2NjXjiie8lXpFhypQCdUSFMiLCyS+6sAioNNBzxbYV6tBKNOhlot9jpTQnIsocRQmLbhiqOioeJ8yAunu67hGdT3Sl0LRS8ZhvPpNZBw8+gpaWFrFdIj9EZ4nmSiWiwNHqgPOcE46rDqjDIujSFHCSrBGqfSqcl8T8z4v5d7OVlojWHlXthsNxHk7nJdHfl7aAk2R4quqwmP9VMf9z4rFVjIuYz66eVS/tlXERcFcccNxwQAmkL9iWoo6JsGsWYSeWmc4gJSKyKhlADscVET7NIojGzLErR1ECYnk3jGUqyrg5dnWsasgZAdcialb9GV4NHXB0imAVy2bQEZGdJQKuRXSdYiizh2pUtd9Y9moG3aqFnAwXR7sIuJHVy1nZbKl2rHpllohoxahqh+i6zaHMU9UREXTtRtiuhlUr4dUuETCDqx8wskYnj9cREdmNPO6WqMGtLlUdFF2XOZRZq1K6y2ZKywSLJn4Jcl1i5jARkS3EjJCzyjVUiRNdMt9suSpJY1wmIK9fswh5Nqc6ytocEdmHvERAnu1oFfJ6PNl0mWmrE3IWDJTVPDZIRJRuqxEotyODN9MyXrIbdzGZsN4ZjfLicyIiu1AUv9lnHem8+DxVma++hERnwdtsGSHH238RkS3I23VZL+QShawMgcwRIZe4biJTV08oMYvWmOKi48knRGQLsjCThZr1KEpmCtpkpmW+JpfZaxGJiMhSMnxBuvlIRERkOww5IiKyLYYcERHZFkOOiIhsiyFHRES2xZAjIiLbYsgREZFtMeSIiMi2GHJERGRbDDkiIrIthhwREdmWGXK8oSQREdnB3DzTWZMjIiL7ynzI8btJiYjWsMyGQMZDTndatGnUITpnopeIKLvJwkwWataj65ktaDNfk/OKzoKNpLpPhC8bb4nIFlQRJj6z30pkIStDIHMyX5PL1aEXWq82Z4QcEZFNWDHkdL1QdLnmUGasSt1FK9HMPuvQSq23TkREy6VppWafdWhaidmXOasTciJQ9Bzr1Jy0Ms2SwUtEtFwyUDStzBxafbqesyrBuyohpxfp0KotEiriN2CsC086ISJbcYpQqRaPq1LM30Sui64XmUOZs2pbr20QtaeK1Q+6eG3cOoFLRJRGMlji8VpzaPVoWoXoNphDmbVqIad7dMTrRMCs4rEwbb0I2o0MOCKyL03bKLr15lDmySbKeLxO1OI85pjMWtV6rGy2jDeKoKvKcNAoiRqcXLYMWyIiu5LhEo83mjW6zF6IrWlVxrJXo5kyaZGQy2yhbwTdVhE4TSJw8lZ+2Vqxhti2mLFMBhwRrQWJoNuKWGybCJ5ic+zK0fU8sbwmY5mrF3CJ8t0SRyR1twi6hjhie0T4bBE1uzItrQEkr82Tx91iO8T8d4v5r2cTJRGtPbLZMh7fLcJuh+iXJ4Kk75o1GaTybM54fIuY/x7x2CDGuc1nV4+ysa5OF8TKiCHxo7GxAU888UTi2dUUFSsXFVXrmDm8XC6xWTIwLRHnRERWokFRwuJRFLh3xSniQxS2ssBdZQcPHkRLS6vRMqsoioWLfhlO8u4oBXfZyevxGHBERIuQt//KEV3BXXayRrj6AbcYFv9ERGRbDDkiIrIthhwREdkWQ46IiGbogXY8d+gUukNySMPEjeM4cnEQEePZ7MOQE7TIJAZ6RhBM31ULRERZSoc8436GHkdcy97CkSEnRAav4XK3X3xmISIiO0l7yGnTI+ju6sNYwI/B9qtobm5Fn19egxFHaKQL15ov40r7IAJzr3/To5ga6sIN8VzztTb0TUTm33clFsBQxzU0X76C1r5xTI72oKtnFKGZF2kIj3WjxZi+A0OBuDl+zvoEpzHSdd2YR9tAwLz8Lgb/QBcG/CLe9GkMd3eha3BKrKlZu+uQr2/GtY4BTN3t9XpERBmgTQ+LMq8Ho7MFpBDH1GCifEsUZToi471oNcrMdgzeUQEnpvUPoON6My7LMrlnDGGjhqAjONqNrr6J2abNuCi7Rbk6OJUsk831GA5krFKR9pBT4mPovNGFtqvXMBRzwRHpw+XnzqD5yjmcbZ+Cw6NiuusCTlzshdHkKwR7LuBsyyhinlx44sO4euI4mkfMixMjg7j07LO41B+Gw+tCpO8Kmm904EbX+ExQjbecxDPnehB05cAdHcDFZ5/D9fHEszPrc+kiOqcd8CgBdJ0/jrNd07JSjkhgHBMB8SeJBjAxNoZx0a/rU+g8dw4dkzq8uW7EBppx/LnrGJ/NTiIiS1JFORnsuoaWwaAo4UyxcXReacWE6oFTBM1k20kcPdOJKacX7tgQLh8/jiujqVwQbk4rysPhmBs5Hh0T7WfxzIkbGIspcOmTouzvxIQ5K226X1RerqF9JJRYFy2A/pZWjGuujDUjrsxyYkG4N+zCjqYGbN69B40+P3rGfNi6dxsaG7Zi945qqGMDGDPj3lW+A/ffvwdbG+rQsG0PtlVoGB3yi19nHOMdNzDgasA99+7C5oZGbN2/H3XeiHgmQZ/qwtVOHRv3H8DOpno07tiPPTU6+jqHZz9NxKbhWL8H+7Y0iPnvxe6NXvj7R0TIulDaIOZb5QXc5WjctRu76kvgVNyo3v0QnrdrM+rrGrF9dxOKwkMYDrBBk4gsTi1A9bo8TA0MzZxnEBnrxZBaiZpiF/TpHlxtj2H9vgPYvakBjdv3Y2+tiv72Ich7n9yKMW1bBNX77sc92xpR37gN+563CxXhTtzoFeVsQTmKMY5hvyyhdUyPjMFZ7EN4WNT25JjQGEYjhSgrytztvlQjXo1fhKzXmL13y5mP4gJzIxQP8nJd8BaVIt+RGOX05sEjamAxM6mcHidiY/1G9ffC6XNoHYtDi2vQ9BDGRkPIq6xA/kwcu1FU6oM5K4THhjHtzUGsvwXXrl0TXav4hOEQteQAwsmNcfhQWpz8mgcHcvJFqEXDiC65sW641RBGe9tx7fJ5nDrfCb8Wn1lfIiLrUpBfWQ3fVD8Gp2UhF8FY3wS869ahUBSckfFhTHlyoQ+2mmVmCwajThFgUwjd5nN8YtpyVBfN+ZZpVxGqypyYHp9C1FWIihJRuxsLiPI7iJGhOAprKpE7PYJxUeuIjIvKRX45SlYw4xI5Nlu4r1CNUYW64BsdFDFidtTc/ggGLh7Dscu9mHb6ULGxERvL3InndRGEogrsdDnnvH4+TZ71I++9qYh5JjtPCdZX5EJJbqeiwjFnBooYXmp+kh7sxpmjovo+GIa7sBL1m2pRnExVIiKry6nE+uIwBgZF2ISH0TvmQXWVzyjwdVGBuKnMFEG1vip/tsxcgjGt6lhQvitilKgvaTIhRSWkTNTcRA0uGBzBcLwYFRXlKPP4MeIPYnJkGjkVJaKSkzmZahZdWngIPUMObNi9F9vq16OyNB9qLJbIYdUNr0j80NT0TPOkbBOeFr+s5LDTK2tlDpTUbcKmTXO6xuo5tb87Exzqw0ReI/bu3YI68SmkxKsjwlocEWUNN0prShAZGMDwYB+mCmpQmZtIJmdODtSIgqKNC8rMpnUouM2HeWduLtTQJPwzx4KkCAJTUbjzcyHrd56ScuQHh9HXN4RYURl8jhyUlHswNTKI4Uk3yktEmZ1Bqx9yigMOhDA5HkA0HoG/pwVdk8mPEzkoqy5ApOcqrotPJNFYBFN919AyEp9ZcXfJOlSqA7h6pRsTkRji4jX+gVa0Dd2udXmW6pJJ6sdUOIpQKGLUOvVpeUJKFLHIBLpa+xG8VdWPiMhiXKJsLIsPoqMvhKKaspnak7OoGpWuYVy93IXxcKLMnBpsQ+tA8lTApTmL1mND7jiuX2zFaFCUj9EQRtsuo8VfiNqaRE0R3lKU5wYxNBiBr7xAlO8K8ooLoY8Pwu8sRakZtpmS/pDTVThE1XUe1QXXvE8Isnprbqi7Apu2lCN84zkcfuooLozkoLIsF25zFjnrd2HPRheGLh7D4UNHcXbAi/Xr8mabHF1l2LJ/G0qCLTj19FN46rB4TWcI7hxzgYutjwhWl3N2nLu0FhvzxnDp6BGcbvfDVb0Zm4r8uHLsMA4fbYa/oALFbnk20G3q8kREVuEoQk2ljolQCWrmHgRzlmDz/h0oj7bh9C9FmSnK1dNt03DlJI+zqVCdMppMovx2O80hRwHq9+1BraMf5545jEOHn8GFQS8a79mN9TnJKbworcxBVC9ARUFinmp+GYq0IJSyMuTNzDgzlI0bze+Tk/9EGS6/T+7JVfo+ORkhS2+/XD/Zfqxh4vqzOBNowIN7q0SlfI5kO7M5ePduvUZERNYVRt/ZZ9Gevxf3NRUuXqO5qzIzWSabgxbxRuP75Fpmjjcuut2rZbHfVWR8CKOhuPh1yhXWEZvswo3uCIqrSuYHnJTWgJMYcESUnWITXegYz8eG9UsEnHRXZab1Am4xlgq5xeihPlw4egiHDh3G04cP4fCJdui1u7Gt6qaIIyKi6BAuHXkKT5/qhXfTNtRk9jwPy7FUc+VSdC2KSDiCmO6E2+uBy/LRTES0SvS4UV7qTi88yWNpa4ilmyuXoqgueHLykJfLgCMiuiXFISoDOWsy4BbDyCAiIttiyBERkW2p86/8mj9ERESUlWSciY41OSIisi2GHBER2RZDjoiIbIshR0REtsWQIyIi22LIERGRbTHkiIjIthhyRERkWww5IiKyLYYcERHZFkOOiIhsS535MgbjtpX8agYiIrIBM85YkyMiIttiyBERkW0x5IiIyLYYckREZFsMOSIisi2GHBER2RZDjoiIbIshR0REtsWQIyIi22LIERGRbTHkiIjIthhyRERkW6pxX+YZ84eIiIiyGWtyRERkWww5IiKyLYYcERHZFkOOiIhsiyFHRES2xZAjIiLbYsgREZFtMeSIiMi2GHJERGRbDDkiIrIthhwREdkWQ46IiOxF3obZvBUzQ46IiGyLIUdERLbFkCMiIttiyBERkW0x5IiIyLYYckREZFsMOSIisi2GHBER2RZDjoiIbIshR0REtsWQIyIi2zJCzrzF15weIiKi7CYjjTU5IiKyLYYcERHZFkOOiIhsiyFHRES2pdRurNMFQHTysbGpEU8+8YT5NFlVaDyEyEQEEX8E0akoYuEY9JgOLa6Zr7h7qkuFw+WAM9cJt88NV74LOaU5cLgd5iuIMkPTNIyMjGBychJTU1NGF4lEEIuJ/V6WX2mgqiqcTidcLhd8Ph/y8/NRWFiI0tJS8xWUDd548CBabrRAURSRcApDLpvIv0+gL4DpwWkER4LQ45k/HVaGnbfUi/zqfKOfaCWFw2H09fVhaGgIY2Nj5tjMKikpQUVFBaqqquB2c5+3uoUhx+bKLCFDbfjCMIYvDhshtxoBJ8ma42T7pLEuE20T0GLpqzkSzdXd3Y3z58/j2rVrqxZw0ujoKK5cuWKsiwxcyi4MuSzg7/Jj9MooAv0Bc8zqi0xFMHZ9DGNXx4zgI0oXWXuTwXb16tVVDbeFkmHX0tKCaDRqjiWrY8hZnKwtjV4dRTRgzTeVv8dvhF14ImyOIVo+GXAyRNrb2xGPx82x1iHDTa4fgy57MOQsTDYLjreMQ9dWp2kyVcHhoLGesnZHtFzyJBIZHrKZ0uo6OzuNdSXrY8hZlDzuNtExYfmAS5JBN9U1lTXrS9YjgyMbAi5Jrq/syNoYchYUC8Uw2TGJeNh6zTW3Mtk1iameKXOIKHXy7MlsDIyOjg7jWB1Zlwg5fvK2GnmZQGgsZA5lF7nusWDMHCJKjTxrUV73lm2CwSD6+/vNIbIi1uQsRtbipvqytzYkL1KfHpg2h4hub3BwMKuDQgY0a3PWxZCzmNBIyLiDSTabHmbIUerknUyymTwLdHh42Bwiq2HIWYy86DvbhUZDRkd0O7KJ0g4BIWty6bq9GKUXQ85C5JmJkUl7nIbPywkoFfIelPK4VraT99T0+/3mEFkJQ85CZDNldNoeF5hme5MrZYadgoEhZ00MOQuJR7PrkoFb4RmWlAp5hxO74B1QrIkhZyFa1D43O+aNmykV8i4ndsGQsyaGnJXY6Lg1Q45SYcX7Uy6XnbbFThhyRERkWww5IiKyLYYcERHZFkOOiIhsiyFHRES2xZAjIiLbYsgREZFtKbUbNybuKyp+yJ7GpkY8+cQTiWcpo+R3sQ1dGDKHspsrz4Wah2rMoewXiis4O+jEjQnRjYlu3IHJiAJ/RDUeV1KBW4fPrRmPTUVxNBXH0FQYw96KGLyO7L648sKFC8ZX1dhBbW0ttm7dag7RannjwYNoudECRRHvS9GxJkd0C+eHnPjahVz8j/8qwO/9ohBfPJWHH7V60DzqRM9UIuhWmlyGXJZcply2XAe5LnKd5LrJdSSixTHkiBYha2pfOpeHjz9TgK+cz8W5IZf5jHXIdZLrJtdRrqtcZyKajyFHtMAPbnjxR0d9+MbFHPRNWf8tItdRrqtcZ7nuRDSLIUdkGpxW8bdn8/AXJ/NwfTz7mgDlOst1l9sgt4WIGHJEBhkK/3AhF9+6lINwfOWPs60Uue5yG+S2MOiIGHJEMwH3rzZq6pPbwqAjYsgR4bvXcmwVcElym+S2Ea1lDDla0+SJGt+5Yt+TNeS28WQUWssYcrRmyVPuH7/qzepjcLcjt01uIy8voDVlzluaIUdr1k87vFl5FuWdktsot5VoLWLIWYgu/tmF6rD2riXvEvIf7R5zyP7ktlrxziiqap8iyE7bYif8q1iIw2WfJiXFae0mwOP97qy40Dtd5LbKbbYap9M+NWmXy3p3xSGGnKWoLvv8OZwe6xZe8mbLx/rWXoEkt1luu5W43dYL3uWyU2DbCUPOQly5Ljg89qjNuX3WLbzktwlY8V6UK01us9x2K8nPzzf7sp+dtsVOGHIWImtyVg6HO+HKt26IyK/LWaustu0+n88WzXy5ubnGtpD1MOQsJqc0+y/e9RR64C60bljL74Nbq6y27V6vF2VlZeZQ9iotLWVzpUUx5CzGW+rN+iZLb4nYBgufRLOWrxmz4rbLgMh2dtgGu2LIWYw734386uxt25fHFfMq88wha8rEF51alRW3XdbksjkkKisrUV5ebg6R1TDkLCivOg+uvOw8TiHX3V1g7eOK/sja3e2tuO3yDMvq6mpzKLvIJkq57oqydj84WR1DzoLkyScFtQVZ98bJrciFb731D76zJmc969atQ21trTmUPTZs2ICKigpziKzIDDn73GnDLnwbfPDVZs/ZWslgtsslEJR5MuSy6SQU2Uy5ceNGc4gsZU6ksSZnYUUNRUZwWJ0MuOKmYuOEE6LlkqfhNzY2ZkXQyYCT62qni9ntiiFnYfK6ucLGQhTWF1r2XpAy2GTA5ZTze8vo7hUWFhrhYeVjdDU1NcY68uLv7MCQszh5Kn7xpmKUbC0xrj+zChm6BRsKULqtlAFHaSWDbsuWLUaQyOvorELWNDdt2oStW7cy4LIIQy5L5Nfko2xXGYoai4zLDFaLDLe8qjyU7y5HybaSrD0LlKxNNgPKkNu1a5dxcsdqNgvKoJXHC+W61NfXw+HgcedswpDLIvIaNBlyVQeqULazzDiTUdbuFHVlz5hzep3ILc81ll15T6URcKy9USYUFxdj27ZtOHDggFG7q6qqQl7eyl+HKWtqssk0uWxZe5M1TMo+Su3GjbpgnI0iHxubGvHkE0+YT1M2iEfi0GM6tJhmjkkPGZ7yuKDqVKE47HPa/T3/N/tvI3U3Tv3msNmXnWQ5FY1GjS4ej5tj00PW0uS9NHlCSfZ648GDaLnRkrgES3QMOVpzGHLZHXJEt7Iw5NhcSUREtsWQIyIi22LIERGRbTHkiIjItsyQM8+cs88JdJRmeiyM6UAAwUh6z+AkmkePITwdQCAUTeGOuhqiIfHa6QjSe45lQjwyjUBgGpGVmDllDGtylBI90IEzzzyHa2MxcwzRCtCm0HHmGE7eGEfUHLW0GEauPodj5zoRSPtnLx3Bngs4drwZQ7dfEbIwhhwRWczt63BEqWLIERGRbTHkiIjIthhyFhH39+DqpWa0DYcRDQyg5cIJPPvMURw7cRbXeicRndOCE5/sQvPFZrSPRswxJj2EgeuXcPnGIELmKOhBMe6yMS4YmUBX82k8d+I8uvxxhIdacPniVfQGYgiPdqL59HE8c/QZHD91GR2jYaR0mEOPwt93HedPHMNRMe1zZ5rRNRZhgxPdHXkXplgAAy0XcOLYURw9dgLnrvXBn8LxMV1MN9TRjDNynzwi9ueTF3BjcHqRk1N0RKcG0HrpFI6L99rRZ47j1MUWDE4vvefr4WG0Nl/CpeY2DIe5l2cDhpxFKFoAw739GB1pxdmT1zGq+1BaXgJvbAwdF5/DiasjSEaaogUx2jcA/03ngGgIj/ejfyw8J2Q0hMb6MDA+io5zZ9EyFoeqaJC3udTD4+jvH8dE70WcuNiLkLcY5aU+qNN9uHryGM73TN86rMR69F58FscvdiPgKkJFRQk84X40n3wWF/pDDDpavtg4Ws6cRsso4CurQIk3htGOC+ID2hWM3jLoIhi6cgrn28aBvFJUV5chTxtB29njON05NeeDWxz+zjMiPM+hY1yBr7waVaV5gH8YI8ElTqeMjuLG2fNoGQijYEMtyjw8HT0bMOQsJYrR3mlU7H8A9+7eik2btmHf/Q9i9zo3prqvo2ty+aeQ6WFRGyzbi+c/eC8OHNiL+kLz60K0SfSNeLHt/vuwb/tmbNq6C/c+cACNhXEM3mjF8ILK4ix59tllXO3XUbX7Qdy/d5tY363Yc9992FYSx8CNdvBETFqu8Gg/wpX7cN+9u7B10yZs23c/HthVBedUN653+W/ZyuCp3ImHXviAsT83NG7Gznv2o6FAEx/mBjFlThgbu4Hz10bhrNmLBx/cj+2bGtC4ZSfuuf8ANhU6Ey8y6fLjWnxSfEg8h/bpAmzavxsb8vl1O9mCIWcpCnLXNWK9b84bSPGgvG4DCjGF4ZHb1KyWIN+ksVgOKmsKMf/tKzlRWteAUvecT6XOQmzYWAZXeBSDS7UP6QEM9I1DL6pHQ4Vn9hJLJRcV1WI5wVGMpP+8bloj1Nx1qK/Jx+w7QYG3oh61hQqmhkcRXPKN4EahbAGZW7I5clBU4IYemkbYqKRFMNrTj2lXJTY3VWBehUxxwOlcUEPTgui5eAbX/Plo3LcXdQU3v4vIuhhyluJEri9nzhs7QXXnwuvQEA4u76JXRfxz5PiQu9j3mype5OcuEn05ueLNH0NoyaabACYC4rlwHy6dPIETJ2a787JZSI8iEl3O2hKJXMrNR85NbwQPckR6xcPJsFqCFsZ4Xxuaz57As0cO46lfPI0zPUHxUU8zDvXJ0JqYjMBZUIbC232jjiJqgDdOo3nEi7q9e9FQxIDLNgw5i1EX/d42o8FEptWyqQ4XFn5ANSgqHIssU9dFgSAeja+rWIweN5qMVHcO8vLyjS+ZnOkKy1G9vhJzK6REd0JRFyuaxPsg2Tiw1HshOoqrzx3FyeYeBJxFqK7fit37D2DX+rzZSbQ4YnFdVNrU27+lRCqGw1Fo4n3istF3Kq4lDDlL0RGL3tzEp0eC4pOrA95cT6KWJwoARbw2GlvQZmPUnsS4O3kvirCKLvJlq/FQEBHdhZybPk6bVDfcYu/R3eVo2r7N+Ablud327VtRW7xY1XH1FbgX/N7WkGzZdj0aS3ywm0uLIBTR4PTmzW+OnKFjur8F3VN5qD/wAA7s3ISNNZUoLcqFU+znM/NTnXC7RI3Q2MfNcUtyoGLLbtTl+HH99Dl0+tk6kW0YcpYSw+Tg8ILjDTGMdfdiEnkoLc4x8kt1eeB2xDA9EZh366P41AhGgmaTTKr0aQwP+sVS5hDjBrrHEPUUoyx/ieYZlw8lBS5Ex3oxuMgBEuOLeC3K5167xwqzZdujEwMYXrBfRce70TOpI6+0GN5FP8jFEZoKIe7wIs8758NZ1I+hsTlnUKm5KBHvJW2iG123PlXToLhLsWnfDtS4xnD19AV0yWZ6yhoMOUtxwhXuwoXmbowHI4iE/Bi8cQbnOqfhrW7EhgLzz+UtRWWBA9O9zbjWM4FwJILgWBeuXB2B6nXKL8NNneqBPnwZF1qHEQhHEA6MouviaVwdBUrq61G65DELD8rrN6BAG8bVUxfQORoQ6yFqkmKdh9ov4IxYlxQuaVoVrMlZn9M5jfbzzegZDyESCcE/eB1nz3UjlLMODet9SxRc8ph2LlzREXS0DSIg3heRwDBaL1zHhMM1p4HDieK6Taj2BtF1/hSae8YwLfb9SGgSg63NaF0k+BRPJbbu24pyDOHKqUvovcW1dGQBc8pAhpylKMhf34CyYBtOHz2MQ08fw7n2KeRu2In9W8sxkzdKLmq2bRFv0hB6Lh3H4UOHcORMF1Bdi1KPclPIKYoqD70twYPKhlq4Bi7g2NOHcPjoSVwZAso278Oe2rw5O4icrzyFZZazqBH79tSjUBvC1ZNHjfU4fOQ5XOwMIaco96YTaKyiqWjtfhLPjm1X4SysRX1pANdPPI1Dh57GsbPtmMpdj537RdDM/eAl9kl1zg7vXbcNW2q8CHSexdHDh/H08UsY8dWitsgNhzpn7/VUYPuBPdiYH0Hv5RM4cljsu78U+27PtFi8+TrxMPeYtCqXv28TiuODuHKmGf2htfthKZsotRs3JlqWxA/5r7GxEU8+8UTiWcoYbeIajj3XA9/uh7C70oV4JIxwTASJRzZNznlzzqMhGhafdOMOuL0euGQiGX/HBUG32Dgh1H0Kz1yJo+GBA6jLgzGvqOaE2+OG86ZQFPOQ+4mYyc1rI9cjjGhch+p0w+MWtUnzGSv69pUcfPGU2OA16P33BPCWrUFzyKLm7K96TB6Hi0FxesR+5bh5v1pi39bEdJGolmjal2dcGa+bH1pJWlS81+RrnS64xL47s+ub09y0zyfHL7JcWn1vPHgQLS0t8q9j/O2W/HxPq0mBw+1Fbq73FgEnqXB5cpGXawacJN+QCydZbNw88snEvHJzFgs4Sc7D2G0WIafNEeubC6/FA05qKly7V6lnxbbP2V8V8aEpx9ivFgk4aYl9W37Y8uaI90/ylGLjdYvvmTIIc3JzjA9n83Z9c5qbpkqOX3x2ZDEMOVpz9lbEsKfcqkcMV47cZrntRGsJQ47WHK9DxwPVay/k5DbLbSdaSxhyVuEuQ/22zajKzVwbiOqrweat61GwBi/avq8qgur8tXOGnNxWuc1Eaw1DziLUnBKsW1+DCl/mLqB2F1Zh/fp1KFn8oiNb210ewyvrwuaQ/cltldtMtNYw5GjN+tWNIWwqsn/BL7dRbivRWsSQozVLXjP25i0heGx8nEpum9zGtXxtIK1tDDla0369KYRHt9q3liO3TW4j0VrFkKM1702bg3idDYNAbpPcNqK1jCFHa15Frobf3TVtq6CT2yK3SW4b0VolT6ljyBEJyaB7645gVh+jk+sut4EBR5TAkCMyyVB4794APnIgkJVnXcp1lusut4EBR5TAkCNaQJ6o8bmH/Hj7zmBWXDAu11Guq1xnnmRCNB9DjmgR8pT739sTwOcfnMS7d09b8l6Xcp3kusl1lOvKywSIbsav2iFKQSiu4OygEzcmRDcmunEHJiMK/BHVeFxJ8otO5Td6y0cZZE3FMePbBOTNlnkvSqL55n7VjvFtEQw5IiKyi4Uhx+ZKIiKyLYYcERHZFkOOiIhsiyFHRES2xZAjIiLbYsgREZFtMeSIiMi2GHJkbXo3/u1D/w0veflb8KWzYXPkCsr08pZB730c7/6Vl+Clv/13OH8Hd/Game4tf4OzvPsXrREMObK8QPdlnL/UA7+ysncWScr08pZjsus8mjv9iN/hKs5MZw4T2R1DjoiIbIshR0REtsWQIyIi22LIkXXoEUz0tuDyuQu40jWKUMpf5aYj5h9A25XzOHP2Mm70jCOSys35l7u85HTnL+KqmC5sTqdrMcRicWhLLjuGqf5WsbxzuNzSB/+S396jIx4T84onZxRHaLQX3f0TM8taSAuNovvaRZy/dAO9k1Exhzuga2K9Y4gvteLm87GlN0xIdduIMoshRxYQQfd//QUevW8Ltuy5Hw+/9Ffwgv3bsPne38AXD/dgesnw0TFx8XF87NfvQdPmXXjeC16Cl7/sYTywbys27X01/vDxZkwtWi4vd3kRdP3s83jkwCZs2Sume8mL8fx7dmDr/b+Nv3v2LL791n2o3/Zq/NVNpy7GMXry6/gfL9phLu+lePj+Pdiy7QV451dPYmzhOvZ+F2/b04BNL/s8Tgycxlfeej82b92Dffe8Fv9z3rx16OEe/Oxzb8A9W7Zh/0Mvxkte9AD2bNmOh9/zDZybTC3qRn/6B3heXRNe/Jmj8Jvj5po49DE8v6EBz//wzzBqjpt1h9tGlGEMOVplcXT/4P143W8/hp9352Dv638fn/7i3+NvP///4TXl5/A/3/MF/HJ6sVMINQz918fx2l97H77+zDjWvfi/44Of/xL+4W8/g/cevBfFw8fxjfe9Bo/85YkFBfdylxdD57+8F7/+1i/iqd4c7Hrte/DJvxTTfe738Iri03jsnZ/Gvw8EEZoOiiicO71Yz59/Ar/++o/jies5eN5bPorHvvz3+IsPvwl7XDfwg08+ird+6SIWxmIsEkRM78VPPvZePHbcjQOvfRRv+tXdKJ/z/XGq2of/+PCjeM8/T+LA2/8IX/zKl/D5D7wZzysNoPnJj+LgW7+K5pSugoghKpY3Pb34OZcKooiEg5gKxMwxScvbNqJMYsjRqtJ7f4BPffJJtDu24W1f/yl++NVP4/ffchBvfufH8aWf/ALf+LVB/Pz4mPnqWXrfD/Hx938Tl+NNePTLP8cv/vkxfPSdj+B1b/4f+NSX/g1P/dsn8ILiSZz464/h788EzamWvzyt5wf49Kd/gE4x3du/8XP85Oufxft+W0z3u3+EL//kP/H3Lx3E06cnzFfP0gf+HZ/68LfQ7NiPD37/EP7lLz+At77xIN72kb/Fv/3kL/Dy0kkc+/vH8KOem6s82sQNnAu9FF/+xWF8/+t/g7/7xt/id/fkmM8C4as/xrfbH8KXfvYTfO3T78VvvuERvPNjYr4/+xbevtWNsSN/gz//Ue+dNV3egbvZNqJMYcjRKoqh5cf/hEP9Oqpf8SF88JUb4DafMTgq8fIPfwy/Vr2wZhXF1e9/DT/rA+re9Kf4zBsa4DWfSVBRfOAd+MPf2Ap36CKe+OfjmDTGL395crrDAzoqX/Z+/MEr1s+fzrkOr/rEH+G16xZZzye/jP/odmDH7/wJ3ntf0bw3nLvhdfj919dDHTqOf39u0Bw7K9Ldi9I3vQcvq3aaY+bT4yV46Qc+iJfXzFsbOKtfgt//vRehRB/CsX99Gr0rkjF3t21EmcKQo1U0jHNHr8CvVOOFb3g+KhdpJVRKt2Bfba45ZBKF97ljNxBQ1+EFr96PYnP0fPnY9YqHUeuMY+jSefQYJ0Isc3kYxYVjV8V0VXj4kYdxUwYKStEm7N6wcD0HcfYZsZ7ODdi7Mx/jA/3o75/tBgZFjbGkArnwo/VyLxa2LCol9+CV91fNa/ycSynZi5ftL1vkeQeq9z+IJrE6/rbL6JqtyKbPXW4bUaaIkJNfEi4s9U4iWinRMXT1BwBXCdZX5pkjF3DkojDfZQ6YouPoHZwGPFVorFliOsFTWYfqHPnyIYxHxIhlL28UncZ0pdhwh+vZMyimi7Xg/77zhSIMdmHXrtlu5479eO2fHRMxEEdoalrUjeZzFK1D1dKbB1dZPap95sACztJa1OQriAdGMbESB8XuctuIMoU1OVo98SCm5Xn7zlwU5DrMkQvp0PSF7W0xRGNiOl1DdOY0+5spYvdOfIATfbJnucvTwgga0+XAl7PUW0ZMd9Mp9nHE5fp5tuC17/8EPvnJTy7RfRxvf6hU1L/mU9158C7eUmmSW7g4bWoIIyEdiisX3gXZmx53t21EmcKQo9XjzEexT5TioQG09S3Rphbqv/k5ZwHKi71AuA8t3aI2sYTwUBcGRS3GXVKNYnnYarnLc4hwk6EYGkTHwBLVIjHP9n5Ru5zLkSeWJxYcnYbvvrfife9735Ldu169FbOnlKRGC07AL2uoiwgPdWNIbIanciOq5h+wvInqdIoQ0hCc8GOx2QXHRm++rGKFt40oXRhytHqcVdi+vQIOrQ/P/vy8eXLIfMFrT+No54KiV63GPQ/Uw6sP4Mj3j2Bg0crcFC789Cm0Rd2ov/952CBrRMtdnphux7ZyqHK6X1xacElCQuj6ETzTtaBRzlGNvfvXw6UN4vQvmxdd3t2IDZ7H6Y7FQncCzz35E9wQ21577wHU3KYm5yksQb74/QR62jF4U8r50XLmxs3bvMLbRpQuDDlaRQXY/+uvQJM7gqvf+0t868yEqE/M0v3n8Y9//m1cvKng9WDHwbfhBaUaun/4eXzh3zoWnNigYfz0N/Hn/3QJ0dKH8Tu/ucesSSx3eYU48PpXGtNd+ecv4H+fmpx3Wr7uP4tvfP6bOHdT5TAXu1/3OuzODaP5Hz+LLx0bxU1XokX7cfwnx9C7nK8FmD6Nr37un9A8rwKpYfSZr+Cx77ci6tuPNz2yF/nmM0vJ2bgfW0sUBM5+D985OTFv26Yv/iMee/zaIjW8Fd42ojRxFBYV/bHZbygpKcEjjzxiDhGtLM/6Xajp/Sl+/OxZHHry33Cy14/ARDdO/eR/4wsf/RP82PNreOOGDpzpKcCDv/lbeH5V4uiOWrQd91a34af/cQS//OF38OPT3Rgen8TQ1UP4l3/4U/zhp7+NC9EGPPJXX8OH7i+e+TS33OV5NuzC+p7/hx8fP4/D3/8hTnZPYjrQh7M/+Qa+8JHP4EfeVxvTne314YHf+C28wDzt31m5C1uiR/DDQ6dw+InH8YvrIxgfH8dQxxn87Dt/g09/8BP4Vu8e/MYb96AoefKX/yL+5Vv/gQ7f/Xj0t16IdYlZzRLPf18839v0arzY/2386bdOYMA/iZH2E/jB1/4UH//s47g8XYLnf/TL+Nyv1WCmImdOd9N886pQ2vcz/OvxZhz/8f9D82QcoeFrePrxx/CRT/0U5a+4D6HLLdC2vQ5ve/WmmabHZW0b0Qr73hNPYGxsDPKUSkURXe3GOh26+C//iY9wTY0NeEK8iChjIl346Z//Af7wH46gx7yBpOIsQNMrP4S/fuxVaPvwf8MHDlXi/f/6I3xwz9xrwmIYOPoVfOqTX8KPLw7P3q9S9aB8t5jm85/F2+5d5KSH5S5PTvfYB/CxrxxGV8hcmLMQm1/1Ifyvv/hVNL/nZfjgMw34+H/+GO/fPmc6fQLn/vFT+PCfPYlzw5HZ2qPqReXOV+Jdn/ks3vX8qtlr73ofx2+/7CP4ZeW78OS/fwL3LDimJr/89L+/5EN4ZuO78bU/34v/+tiH8c2Tye1X4Kk8gN/81F/hU49sxdyTM2enex++94OPYP/c+Yau47sf/V380XcvYTwmZ6TAkVeHV3zki/ho3Y/w9nf/M7SDX8e//+XLUZKYIuFOt41ohb3x4EG0tLQkAk52G0XIJQKOIUery7jJcHs3xrR8VKxfj6oCtyhqRTmqyZsHK1AdjsRZkjfREBrtQWfvCIKqD2XV61Fd7LltW/xyl6cFR9Dd2YsJMV15TQ0q5XSRy/hfr/lV/OmN+/DYU9/DW2sXWboWwmhPJ/pGpqF5i1Appi33uYxlzqchHtOgKyocDvMM0XnkDZzjc56XN0fuQPtAAK7iGtSuL8XiJ4EunG4hHVF/PzraBxBwlWBD3XqUeMWM5A2a4yK+VAeci/8B7mDbiFbWQSPkWuXntDkhZ9bk5P+NdRvx9a99DaWlpeYkRHQ78Y7/g0df+iEcrfp9/OtPP43nLbyenIhW3MjICN7xjneio6NjJuQSH+eMj1uJz1zhUBitbW1GPxGZYhFEljqBQh/BoS99FUfH3Wh82SuxgwFHtCpkdoXCyTOOE5k206iRGBQhFwmjrVVU9Yho1siP8IFXvQEf+Op/4nz7ACZCEUTDfvRf/in++h2vwdu/dR163Rvw0XcdmHccjIgyR2ZXJJw4FziRabK5sk42V4p+s8nS5XShvr4eX/ziX6G6utp4GdGaN/BDvOeV78aTxrVwClTxPnEijqg8xiX6Sva8BV/42ufw+npP4vVElFF9fX14//s/gDZRm4vGojLexFvVCLl645icPCBnPIr/hYWFeNnLX4aPf+xjiamJCHp4CJef/hkOn7mG9q5+TCoFqGrYjQd/5aV44a4qeJPNIUSUcZ//whfws//8GSYmJoxqnHHSifwnQy4RcLIyZ/yQQ1hXvQ4PPfQQ3va2t7JGR0REliRrcN/85rdw5OgR4xswZEVNBpxRi5MPdbImZ4ZcMuCMfqGwsACVlZV4w+tfbzRhNjQ08KxLIiJaVfIsytbWVqNp8l++/30MDAxgcsK8uZwMtkRVLlGbq6uXzZVmLW6RsHO5nPDl++D2uOH1eI3ra4wMNH4stOjIeW7/ClPKL0xFWme2CquW3vVPJ+v+maz7O0sv8Wa2qjSumoW3Ukhh7Sz9u0jfHGXNKX0WmZkYJcfGYnGEwyGEIxFMTU0hGo0lam3GC8waXLK/rr7BSLNEqImCQf43hxP/54xP/Jh5XMgYfzspvERKaV5Sii9LRXqXmdq80rj6q/O7WA0WXrWsJkuPLGcUbOmS4qxSe9lqrFf6lmk0/6VTCrNbdP3FqJnwmulPPCaaKJPjZp9fEHJyLvJR9Bj/5/ff9LiA8dp0SXFWi63HTdK4WlKml5nS8u5EmmeXirRvA1meUdhYUYqrlfrap/DKNP4q0v57TWn1U1xmyi9LaaE3MaYz/s99FD/njpPDyfFymnoRckYBJP8bfXP7hbnj5L/ESOP/QuYUt5bCS6SU5iWltMj0zStVKS8zFWmcVcLtZ7gKi1wz0rlvJN7GWSzNq5/a7FJc6Cr8atP690x5M1N4YTrnJaW0yEVeZIwSz4hH4/mZx7njEv3GkOyvbxAhJ99zZpjN7U/8n31cWKtbyBifLinOKqVlpnG1pEwvM62/Vymts0ttZmneAmtajY003szWlN5VS+Pc0vw7MwrWdElhVmldnpTOZab8smVugwwt40H8NP7LH+bczOH5zyn4/wGXMncWkPmyiwAAAABJRU5ErkJggg==;" vertex="1" parent="1">
          <mxGeometry x="1402.5" y="230" width="441" height="563" as="geometry" />
        </mxCell>
      </root>
    </mxGraphModel>
  </diagram>
</mxfile>
